<svg width="500" height="351" viewBox="0 0 500 351" fill="none" xmlns="http://www.w3.org/2000/svg">
<rect width="500" height="350" transform="translate(0 0.5)" fill="#FFF4FF"/>
<path d="M93.875 177.625L94.3125 168.031L86.25 173.25L83.75 168.938L92.3125 164.562L83.75 160.188L86.25 155.812L94.3125 161.031L93.875 151.438H98.8125L98.375 161.031L106.438 155.812L108.938 160.188L100.375 164.562L108.938 168.938L106.438 173.25L98.375 168.031L98.8125 177.625H93.875ZM130.125 150.781C132.208 150.802 134.25 151.188 136.25 151.938C138.271 152.667 140.094 153.875 141.719 155.562C143.365 157.25 144.677 159.531 145.656 162.406C146.635 165.26 147.125 168.823 147.125 173.094C147.125 177.156 146.719 180.771 145.906 183.938C145.094 187.104 143.917 189.781 142.375 191.969C140.854 194.156 139.01 195.823 136.844 196.969C134.677 198.094 132.25 198.656 129.562 198.656C126.792 198.656 124.323 198.104 122.156 197C119.99 195.896 118.24 194.385 116.906 192.469C115.573 190.531 114.729 188.312 114.375 185.812H121.312C121.771 187.792 122.698 189.406 124.094 190.656C125.51 191.885 127.333 192.5 129.562 192.5C132.958 192.5 135.604 191.01 137.5 188.031C139.417 185.052 140.385 180.896 140.406 175.562H140.062C139.25 176.875 138.26 178.01 137.094 178.969C135.927 179.906 134.615 180.625 133.156 181.125C131.698 181.625 130.156 181.875 128.531 181.875C125.823 181.875 123.365 181.219 121.156 179.906C118.948 178.594 117.198 176.792 115.906 174.5C114.615 172.188 113.958 169.552 113.938 166.594C113.958 163.635 114.635 160.958 115.969 158.562C117.323 156.167 119.208 154.271 121.625 152.875C124.042 151.458 126.875 150.76 130.125 150.781ZM130.156 156.719C128.385 156.719 126.792 157.156 125.375 158.031C123.958 158.906 122.844 160.083 122.031 161.562C121.219 163.042 120.812 164.688 120.812 166.5C120.812 168.312 121.198 169.948 121.969 171.406C122.76 172.865 123.854 174.031 125.25 174.906C126.646 175.76 128.229 176.188 130 176.188C131.792 176.188 133.396 175.74 134.812 174.844C136.25 173.927 137.396 172.729 138.25 171.25C139.104 169.75 139.531 168.135 139.531 166.406C139.531 164.698 139.125 163.104 138.312 161.625C137.5 160.146 136.385 158.958 134.969 158.062C133.573 157.167 131.969 156.719 130.156 156.719ZM168.625 198.625C166.562 198.625 164.521 198.26 162.5 197.531C160.479 196.802 158.656 195.594 157.031 193.906C155.406 192.198 154.094 189.906 153.094 187.031C152.115 184.156 151.625 180.583 151.625 176.312C151.625 172.25 152.031 168.646 152.844 165.5C153.677 162.333 154.854 159.667 156.375 157.5C157.917 155.312 159.771 153.656 161.938 152.531C164.104 151.385 166.542 150.812 169.25 150.812C172.021 150.812 174.479 151.365 176.625 152.469C178.771 153.552 180.51 155.052 181.844 156.969C183.198 158.885 184.042 161.073 184.375 163.531H177.5C177.021 161.594 176.083 160.021 174.688 158.812C173.292 157.583 171.479 156.969 169.25 156.969C165.833 156.969 163.167 158.458 161.25 161.438C159.354 164.396 158.406 168.521 158.406 173.812H158.75C159.562 172.5 160.552 171.375 161.719 170.438C162.885 169.479 164.188 168.75 165.625 168.25C167.083 167.75 168.635 167.5 170.281 167.5C172.969 167.5 175.406 168.156 177.594 169.469C179.802 170.781 181.552 172.594 182.844 174.906C184.156 177.198 184.812 179.833 184.812 182.812C184.812 185.771 184.135 188.448 182.781 190.844C181.448 193.24 179.562 195.135 177.125 196.531C174.708 197.927 171.875 198.625 168.625 198.625ZM168.594 192.719C170.385 192.719 171.979 192.281 173.375 191.406C174.792 190.531 175.917 189.354 176.75 187.875C177.583 186.375 178 184.708 178 182.875C178 181.083 177.594 179.458 176.781 178C175.99 176.542 174.896 175.385 173.5 174.531C172.125 173.656 170.542 173.219 168.75 173.219C166.979 173.219 165.375 173.667 163.938 174.562C162.5 175.458 161.354 176.646 160.5 178.125C159.667 179.604 159.25 181.208 159.25 182.938C159.25 184.667 159.656 186.281 160.469 187.781C161.281 189.281 162.385 190.479 163.781 191.375C165.198 192.271 166.802 192.719 168.594 192.719ZM205.562 198.625C202.708 198.625 200.146 198.083 197.875 197C195.625 195.896 193.823 194.385 192.469 192.469C191.115 190.531 190.396 188.333 190.312 185.875H197.125C197.292 187.854 198.177 189.49 199.781 190.781C201.385 192.073 203.312 192.719 205.562 192.719C207.354 192.719 208.938 192.302 210.312 191.469C211.688 190.635 212.771 189.5 213.562 188.062C214.354 186.604 214.75 184.938 214.75 183.062C214.75 181.188 214.344 179.51 213.531 178.031C212.719 176.531 211.594 175.354 210.156 174.5C208.74 173.646 207.104 173.219 205.25 173.219C203.833 173.219 202.417 173.469 201 173.969C199.583 174.448 198.438 175.073 197.562 175.844L191.094 174.906L193.719 151.438H219.312V157.469H199.594L198.125 170.5H198.375C199.271 169.604 200.469 168.875 201.969 168.312C203.49 167.729 205.125 167.438 206.875 167.438C209.708 167.438 212.229 168.115 214.438 169.469C216.667 170.802 218.417 172.635 219.688 174.969C220.958 177.281 221.594 179.938 221.594 182.938C221.594 185.958 220.906 188.656 219.531 191.031C218.156 193.385 216.26 195.24 213.844 196.594C211.448 197.948 208.688 198.625 205.562 198.625ZM236.75 177.625L237.188 168.031L229.125 173.25L226.625 168.938L235.188 164.562L226.625 160.188L229.125 155.812L237.188 161.031L236.75 151.438H241.688L241.25 161.031L249.312 155.812L251.812 160.188L243.25 164.562L251.812 168.938L249.312 173.25L241.25 168.031L241.688 177.625H236.75ZM258.312 198V151.438H275.406C278.698 151.438 281.427 151.979 283.594 153.062C285.76 154.146 287.375 155.615 288.438 157.469C289.521 159.302 290.062 161.365 290.062 163.656C290.062 165.594 289.698 167.229 288.969 168.562C288.26 169.896 287.312 170.958 286.125 171.75C284.938 172.542 283.625 173.125 282.188 173.5V173.938C283.75 174.021 285.271 174.521 286.75 175.438C288.229 176.354 289.448 177.656 290.406 179.344C291.385 181.01 291.875 183.052 291.875 185.469C291.875 187.844 291.312 189.979 290.188 191.875C289.083 193.75 287.375 195.24 285.062 196.344C282.75 197.448 279.781 198 276.156 198H258.312ZM265.344 192H275.469C278.844 192 281.26 191.344 282.719 190.031C284.177 188.719 284.906 187.083 284.906 185.125C284.906 183.646 284.531 182.302 283.781 181.094C283.052 179.865 282 178.885 280.625 178.156C279.25 177.427 277.625 177.062 275.75 177.062H265.344V192ZM265.344 171.594H274.781C276.344 171.594 277.76 171.292 279.031 170.688C280.302 170.083 281.302 169.229 282.031 168.125C282.781 167 283.156 165.698 283.156 164.219C283.156 162.302 282.479 160.698 281.125 159.406C279.792 158.094 277.74 157.438 274.969 157.438H265.344V171.594ZM301.594 151.438L314.562 189.344H315.062L328.031 151.438H335.594L318.875 198H310.75L294 151.438H301.594ZM377.219 151.438V198H370.656L347.062 163.875H346.594V198H339.562V151.438H346.062L369.75 185.625H370.188V151.438H377.219ZM401.656 198L409.312 151.438H414.75L407.125 198H401.656ZM380.562 185.531L381.5 180.094H416.781L415.875 185.531H380.562ZM385.312 198L392.938 151.438H398.375L390.75 198H385.312ZM383.312 169.375L384.219 163.906H419.438L418.594 169.375H383.312Z" fill="url(#paint0_linear_1893_10387)"/>
<defs>
<linearGradient id="paint0_linear_1893_10387" x1="418.825" y1="211" x2="257.655" y2="-9.20366" gradientUnits="userSpaceOnUse">
<stop stop-color="#981D87"/>
<stop offset="0.964828" stop-color="#CE73C1"/>
</linearGradient>
</defs>
</svg>
