<svg width="500" height="350" viewBox="0 0 500 350" fill="none" xmlns="http://www.w3.org/2000/svg">
<rect width="500" height="350" fill="#FFF4FF"/>
<path d="M137.875 177.625L138.312 168.031L130.25 173.25L127.75 168.938L136.312 164.562L127.75 160.188L130.25 155.812L138.312 161.031L137.875 151.438H142.812L142.375 161.031L150.438 155.812L152.938 160.188L144.375 164.562L152.938 168.938L150.438 173.25L142.375 168.031L142.812 177.625H137.875ZM174.188 198.625C171.333 198.625 168.771 198.083 166.5 197C164.25 195.896 162.448 194.385 161.094 192.469C159.74 190.531 159.021 188.333 158.938 185.875H165.75C165.917 187.854 166.802 189.49 168.406 190.781C170.01 192.073 171.938 192.719 174.188 192.719C175.979 192.719 177.562 192.302 178.938 191.469C180.312 190.635 181.396 189.5 182.188 188.062C182.979 186.604 183.375 184.938 183.375 183.062C183.375 181.188 182.969 179.51 182.156 178.031C181.344 176.531 180.219 175.354 178.781 174.5C177.365 173.646 175.729 173.219 173.875 173.219C172.458 173.219 171.042 173.469 169.625 173.969C168.208 174.448 167.062 175.073 166.188 175.844L159.719 174.906L162.344 151.438H187.938V157.469H168.219L166.75 170.5H167C167.896 169.604 169.094 168.875 170.594 168.312C172.115 167.729 173.75 167.438 175.5 167.438C178.333 167.438 180.854 168.115 183.062 169.469C185.292 170.802 187.042 172.635 188.312 174.969C189.583 177.281 190.219 179.938 190.219 182.938C190.219 185.958 189.531 188.656 188.156 191.031C186.781 193.385 184.885 195.24 182.469 196.594C180.073 197.948 177.312 198.625 174.188 198.625ZM211.75 198.625C209.688 198.625 207.646 198.26 205.625 197.531C203.604 196.802 201.781 195.594 200.156 193.906C198.531 192.198 197.219 189.906 196.219 187.031C195.24 184.156 194.75 180.583 194.75 176.312C194.75 172.25 195.156 168.646 195.969 165.5C196.802 162.333 197.979 159.667 199.5 157.5C201.042 155.312 202.896 153.656 205.062 152.531C207.229 151.385 209.667 150.812 212.375 150.812C215.146 150.812 217.604 151.365 219.75 152.469C221.896 153.552 223.635 155.052 224.969 156.969C226.323 158.885 227.167 161.073 227.5 163.531H220.625C220.146 161.594 219.208 160.021 217.812 158.812C216.417 157.583 214.604 156.969 212.375 156.969C208.958 156.969 206.292 158.458 204.375 161.438C202.479 164.396 201.531 168.521 201.531 173.812H201.875C202.688 172.5 203.677 171.375 204.844 170.438C206.01 169.479 207.312 168.75 208.75 168.25C210.208 167.75 211.76 167.5 213.406 167.5C216.094 167.5 218.531 168.156 220.719 169.469C222.927 170.781 224.677 172.594 225.969 174.906C227.281 177.198 227.938 179.833 227.938 182.812C227.938 185.771 227.26 188.448 225.906 190.844C224.573 193.24 222.688 195.135 220.25 196.531C217.833 197.927 215 198.625 211.75 198.625ZM211.719 192.719C213.51 192.719 215.104 192.281 216.5 191.406C217.917 190.531 219.042 189.354 219.875 187.875C220.708 186.375 221.125 184.708 221.125 182.875C221.125 181.083 220.719 179.458 219.906 178C219.115 176.542 218.021 175.385 216.625 174.531C215.25 173.656 213.667 173.219 211.875 173.219C210.104 173.219 208.5 173.667 207.062 174.562C205.625 175.458 204.479 176.646 203.625 178.125C202.792 179.604 202.375 181.208 202.375 182.938C202.375 184.667 202.781 186.281 203.594 187.781C204.406 189.281 205.51 190.479 206.906 191.375C208.323 192.271 209.927 192.719 211.719 192.719ZM248.688 198.625C245.833 198.625 243.271 198.083 241 197C238.75 195.896 236.948 194.385 235.594 192.469C234.24 190.531 233.521 188.333 233.438 185.875H240.25C240.417 187.854 241.302 189.49 242.906 190.781C244.51 192.073 246.438 192.719 248.688 192.719C250.479 192.719 252.062 192.302 253.438 191.469C254.812 190.635 255.896 189.5 256.688 188.062C257.479 186.604 257.875 184.938 257.875 183.062C257.875 181.188 257.469 179.51 256.656 178.031C255.844 176.531 254.719 175.354 253.281 174.5C251.865 173.646 250.229 173.219 248.375 173.219C246.958 173.219 245.542 173.469 244.125 173.969C242.708 174.448 241.562 175.073 240.688 175.844L234.219 174.906L236.844 151.438H262.438V157.469H242.719L241.25 170.5H241.5C242.396 169.604 243.594 168.875 245.094 168.312C246.615 167.729 248.25 167.438 250 167.438C252.833 167.438 255.354 168.115 257.562 169.469C259.792 170.802 261.542 172.635 262.812 174.969C264.083 177.281 264.719 179.938 264.719 182.938C264.719 185.958 264.031 188.656 262.656 191.031C261.281 193.385 259.385 195.24 256.969 196.594C254.573 197.948 251.812 198.625 248.688 198.625ZM279.875 177.625L280.312 168.031L272.25 173.25L269.75 168.938L278.312 164.562L269.75 160.188L272.25 155.812L280.312 161.031L279.875 151.438H284.812L284.375 161.031L292.438 155.812L294.938 160.188L286.375 164.562L294.938 168.938L292.438 173.25L284.375 168.031L284.812 177.625H279.875ZM317 198.625C313.417 198.625 310.344 197.688 307.781 195.812C305.24 193.938 303.292 191.229 301.938 187.688C300.604 184.125 299.938 179.812 299.938 174.75C299.938 169.708 300.615 165.406 301.969 161.844C303.323 158.26 305.271 155.531 307.812 153.656C310.375 151.76 313.438 150.812 317 150.812C320.583 150.812 323.646 151.76 326.188 153.656C328.75 155.531 330.698 158.26 332.031 161.844C333.385 165.406 334.062 169.708 334.062 174.75C334.062 179.812 333.396 184.125 332.062 187.688C330.729 191.229 328.792 193.938 326.25 195.812C323.708 197.688 320.625 198.625 317 198.625ZM317 192.625C319.188 192.625 321.031 191.927 322.531 190.531C324.031 189.135 325.177 187.104 325.969 184.438C326.76 181.75 327.156 178.521 327.156 174.75C327.156 170.958 326.76 167.729 325.969 165.062C325.177 162.375 324.031 160.333 322.531 158.938C321.031 157.521 319.188 156.812 317 156.812C313.771 156.812 311.271 158.385 309.5 161.531C307.75 164.656 306.875 169.062 306.875 174.75C306.875 178.521 307.271 181.75 308.062 184.438C308.854 187.104 310 189.135 311.5 190.531C313.021 191.927 314.854 192.625 317 192.625ZM357.031 198L364.688 151.438H370.125L362.5 198H357.031ZM335.938 185.531L336.875 180.094H372.156L371.25 185.531H335.938ZM340.688 198L348.312 151.438H353.75L346.125 198H340.688ZM338.688 169.375L339.594 163.906H374.812L373.969 169.375H338.688Z" fill="url(#paint0_linear_1893_10354)"/>
<defs>
<linearGradient id="paint0_linear_1893_10354" x1="374.134" y1="211" x2="205.056" y2="40.6397" gradientUnits="userSpaceOnUse">
<stop stop-color="#981D87"/>
<stop offset="0.964828" stop-color="#CE73C1"/>
</linearGradient>
</defs>
</svg>
